<svg xmlns="http://www.w3.org/2000/svg" viewBox="0 0 100.72 100.72"><circle cx="50.36" cy="50.36" r="50.36" style="fill:#fbb040"/><path d="m50.71 38.21 1.34-27.16c.02-3.13 1.71-3.04 1.71.04 0 0 .5 14.64.85 27.08l.67-.03 1.35-27.37c.02-2.76 1.71-2.68 1.71.04 0 0 1.26 23.76 1.2 29.36-.04 3.83-6.82 7.13-6.82 7.13s-1-5.8 2.06 40.77c.13 1.92-2.03 3.85-3.05 3.9h-2.7c-1.02-.05-3.22-1.99-3.09-3.9C49 41.5 48 47.3 48 47.3s-6.79-3.3-6.82-7.13c-.05-5.6 1.2-29.36 1.2-29.36 0-2.72 1.69-2.8 1.71-.04l1.35 27.37.76.03c.36-12.44.85-27.08.85-27.08 0-3.08 1.69-3.18 1.71-.04l1.34 27.17h.6Z" style="fill:#fff"/></svg>