<svg xmlns="http://www.w3.org/2000/svg" viewBox="0 0 100.72 100.72"><circle cx="50.36" cy="50.36" r="50.36" style="fill:#1c75bc"/><path d="m80.55 72.26-10.3-28.52c-.16-.43-.57-.72-1.03-.72H60.1c-.42 0-.81-.25-.99-.63-.18-.38-.12-.84.15-1.17 1.84-2.2 2.85-5 2.85-7.89 0-6.8-5.53-12.34-12.34-12.34s-12.34 5.53-12.34 12.34c0 2.89 1.01 5.69 2.85 7.89.27.33.33.78.15 1.17-.18.38-.57.63-.99.63h-9.12c-.46 0-.87.29-1.03.72l-10.3 28.49c-.11.29-.08.62.07.9s.41.47.72.54c3.14.73 12.42 2.43 30.61 2.43s26.49-1.69 29.39-2.41c.3-.08.56-.27.7-.55.15-.27.17-.6.06-.89Zm-30.78-33.6c-2.94 0-5.33-2.39-5.33-5.33S46.83 28 49.77 28s5.33 2.39 5.33 5.33-2.39 5.33-5.33 5.33Z" style="fill:#fff"/></svg>