<svg xmlns="http://www.w3.org/2000/svg" viewBox="0 0 100.72 100.72"><circle cx="50.36" cy="50.36" r="50.36" style="fill:#006838"/><path d="M91.88 46.46s-3.6-.68-9.04-1.51L84 36.13c.22-1.64-.94-3.15-2.58-3.37l-9.9-1.3c-1.64-.22-3.15.94-3.37 2.58l-1.17 8.89c-5.52-.54-11.3-.93-16.62-.93-5.86 0-11.41.27-16.64.71l-1.14-8.67a3 3 0 0 0-3.37-2.58l-9.9 1.3a3 3 0 0 0-2.58 3.37l1.13 8.59c-3.2.54-6.21 1.13-9.01 1.74.53 3.61 1.07 7.22 1.6 10.82 2.95-.61 5.9-1.14 8.86-1.6l1.18 8.98a3 3 0 0 0 3.37 2.58l9.9-1.3a3 3 0 0 0 2.58-3.37l-1.15-8.71c10.08-.71 20.2-.63 30.34.15l-1.13 8.55c-.22 1.64.94 3.15 2.58 3.37l9.9 1.3c1.64.22 3.15-.94 3.37-2.58l1.16-8.84c2.96.43 5.92.92 8.88 1.46.53-3.61 1.07-7.22 1.6-10.82Z" style="fill:#fff"/></svg>